<svg width="88" height="78" viewBox="0 0 88 78" fill="none" xmlns="http://www.w3.org/2000/svg">
<path d="M39.315 59.3125C39.315 60.5557 39.8088 61.748 40.6879 62.6271C41.567 63.5061 42.7593 64 44.0025 64C45.2457 64 46.438 63.5061 47.317 62.6271C48.1961 61.748 48.69 60.5557 48.69 59.3125C48.69 58.0693 48.1961 56.877 47.317 55.9979C46.438 55.1189 45.2457 54.625 44.0025 54.625C42.7593 54.625 41.567 55.1189 40.6879 55.9979C39.8088 56.877 39.315 58.0693 39.315 59.3125ZM40.8775 29.625V47.5938C40.8775 48.0234 41.229 48.375 41.6587 48.375H46.3462C46.7759 48.375 47.1275 48.0234 47.1275 47.5938V29.625C47.1275 29.1953 46.7759 28.8438 46.3462 28.8438H41.6587C41.229 28.8438 40.8775 29.1953 40.8775 29.625ZM87.3326 72.5938L46.7076 2.28125C46.1021 1.23633 45.0572 0.71875 44.0025 0.71875C42.9478 0.71875 41.8931 1.23633 41.2974 2.28125L0.672397 72.5938C-0.528775 74.6836 0.975131 77.2812 3.37747 77.2812H84.6275C87.0298 77.2812 88.5337 74.6836 87.3326 72.5938ZM10.8189 69.8691L44.0025 12.4277L77.1861 69.8691H10.8189Z" fill="#F43319"/>
</svg>
